<svg id="Layer_1" data-name="Layer 1" xmlns="http://www.w3.org/2000/svg" viewBox="0 0 96 96"><defs><style>.cls-1,.cls-2{fill:#fff;stroke:#fff;stroke-miterlimit:10;}.cls-1{stroke-width:2px;}.cls-2{stroke-width:6px;}</style></defs><path d="M69.21,9H64.64V33h-33V9H15.14a8,8,0,0,0-8,8V83a8,8,0,0,0,8,8h66a8,8,0,0,0,8-8V28.88a6,6,0,0,0-1.76-4.24L73.45,10.71A6,6,0,0,0,69.21,9Z"/><rect x="49.64" y="8.96" width="8" height="15"/><polygon class="cls-1" points="36.28 75 31.84 89.8 31.83 89.83 46.63 85.39 41.46 80.2 36.28 75"/><rect class="cls-2" x="40.91" y="53.86" width="41.16" height="12.63" transform="translate(-24.54 61.1) rotate(-45)"/></svg>