<svg id="Layer_1" data-name="Layer 1" xmlns="http://www.w3.org/2000/svg" viewBox="0 0 96 96"><defs><style>.cls-1{fill:none;stroke:#fff;stroke-miterlimit:10;stroke-width:6px;}.cls-2{fill:#fff;}</style></defs><path class="cls-1" d="M74.27,6H30.92a6.38,6.38,0,0,0-6.38,6.38V65.11a6.39,6.39,0,0,0,6.38,6.39H83.61A6.39,6.39,0,0,0,90,65.11V21.77a4.79,4.79,0,0,0-1.4-3.39L77.65,7.44A4.75,4.75,0,0,0,74.27,6Z"/><path d="M74.27,6H30.92a6.38,6.38,0,0,0-6.38,6.38V65.11a6.39,6.39,0,0,0,6.38,6.39H83.61A6.39,6.39,0,0,0,90,65.11V21.77a4.79,4.79,0,0,0-1.4-3.39L77.65,7.44A4.75,4.75,0,0,0,74.27,6Z"/><path class="cls-1" d="M64.77,15.54H21.42A6.38,6.38,0,0,0,15,21.92V74.61A6.39,6.39,0,0,0,21.42,81H74.11a6.39,6.39,0,0,0,6.39-6.39V31.27a4.79,4.79,0,0,0-1.4-3.39L68.15,16.94A4.75,4.75,0,0,0,64.77,15.54Z"/><path d="M64.77,15.54H21.42A6.38,6.38,0,0,0,15,21.92V74.61A6.39,6.39,0,0,0,21.42,81H74.11a6.39,6.39,0,0,0,6.39-6.39V31.27a4.79,4.79,0,0,0-1.4-3.39L68.15,16.94A4.75,4.75,0,0,0,64.77,15.54Z"/><path class="cls-1" d="M55.77,24.54H12.42A6.38,6.38,0,0,0,6,30.92V83.61A6.39,6.39,0,0,0,12.42,90H65.11a6.39,6.39,0,0,0,6.39-6.39V40.27a4.79,4.79,0,0,0-1.4-3.39L59.15,25.94A4.75,4.75,0,0,0,55.77,24.54Z"/><rect class="cls-2" x="24.35" y="24.54" width="27.94" height="19.96"/><path d="M55.59,24.54H51.94V43.7H25.6V24.54H12.42A6.4,6.4,0,0,0,6,30.92V83.61A6.4,6.4,0,0,0,12.42,90H65.11a6.4,6.4,0,0,0,6.39-6.39V40.45a4.77,4.77,0,0,0-1.4-3.39L59,25.94A4.79,4.79,0,0,0,55.59,24.54Z"/><rect x="39.97" y="24.54" width="6.39" height="12.06"/></svg>